<?xml version="1.0" encoding="utf-8"?>
<!-- Generator: Adobe Illustrator 23.0.3, SVG Export Plug-In . SVG Version: 6.00 Build 0)  -->
<svg version="1.1" id="Icons" xmlns="http://www.w3.org/2000/svg" xmlns:xlink="http://www.w3.org/1999/xlink" x="0px" y="0px"
	 viewBox="0 0 32 32" style="enable-background:new 0 0 32 32;" xml:space="preserve">
<style type="text/css">
	.st0{fill:none;stroke:#000000;stroke-width:2;stroke-linecap:round;stroke-linejoin:round;stroke-miterlimit:10;}
</style>
<g>
	<path d="M23,2c-0.6,0-1,0.4-1,1v6c0,1.2-0.4,2.4-1.1,3.4c-0.3,0.5-0.2,1.1,0.2,1.4c0.2,0.1,0.4,0.2,0.6,0.2c0.3,0,0.6-0.1,0.8-0.4
		C23.5,12.2,24,10.6,24,9V3C24,2.4,23.6,2,23,2z"/>
	<path d="M10.8,18.2c-0.5-0.3-1.1-0.2-1.4,0.2C8.5,19.8,8,21.4,8,23v6c0,0.6,0.4,1,1,1s1-0.4,1-1v-6c0-1.2,0.4-2.4,1.1-3.4
		C11.4,19.1,11.3,18.5,10.8,18.2z"/>
	<path d="M16,15c-1.8,0-3.4-0.8-4.5-2H18c0.6,0,1-0.4,1-1s-0.4-1-1-1h-7.6C10.1,10.4,10,9.7,10,9h10c0.6,0,1-0.4,1-1s-0.4-1-1-1H10
		V5h10c0.6,0,1-0.4,1-1s-0.4-1-1-1H9C8.4,3,8,3.4,8,4v5c0,4.4,3.6,8,8,8c1.8,0,3.4,0.8,4.5,2H14c-0.6,0-1,0.4-1,1s0.4,1,1,1h7.6
		c0.2,0.6,0.4,1.3,0.4,2H12c-0.6,0-1,0.4-1,1s0.4,1,1,1h10v2H12c-0.6,0-1,0.4-1,1s0.4,1,1,1h11c0.6,0,1-0.4,1-1v-5
		C24,18.6,20.4,15,16,15z"/>
</g>
</svg>
